<svg width="1024" height="1024" version="1.1" viewBox="0 0 1024 1024" xml:space="preserve" xmlns="http://www.w3.org/2000/svg" xmlns:xlink="http://www.w3.org/1999/xlink"><defs><linearGradient id="linearGradient42" x1="304.59" x2="721.89" y1="150.72" y2="538.03" gradientUnits="userSpaceOnUse"><stop stop-color="#d97a0d" offset="0"/><stop stop-color="#d97e08" offset="1"/></linearGradient><linearGradient id="linearGradient44" x1="369.98" x2="628.81" y1="232.45" y2="466.24" gradientUnits="userSpaceOnUse"><stop stop-color="#ffcf2c" offset="0"/><stop stop-color="#ffb32c" offset="1"/></linearGradient><linearGradient id="linearGradient58" x1="337.73" x2="562.34" y1="747.92" y2="747.92" gradientUnits="userSpaceOnUse"><stop stop-color="#2b666f" offset="0"/><stop stop-color="#38a86f" offset="1"/></linearGradient><linearGradient id="linearGradient60" x1="503.87" x2="685.11" y1="737.27" y2="737.27" gradientUnits="userSpaceOnUse"><stop stop-color="#1c4d4b" offset="0"/><stop stop-color="#1c4d4b" stop-opacity="0" offset="1"/></linearGradient><linearGradient id="linearGradient62" x1="521.43" x2="610.64" y1="709.63" y2="573.94" gradientUnits="userSpaceOnUse"><stop stop-color="#3fb984" offset="0"/><stop stop-color="#34886f" offset="1"/></linearGradient></defs><g stroke="#1c4d4b"><path d="m361.37 569.94c7.5478 0.73759 12.651-0.96934 17.575-2.8559 21.344 36.71 54.268 55.827 90.469 61.971l76.649 181.52-41.414 98.191z" fill="url(#linearGradient58)" stroke-linecap="square" stroke-width="30" style="paint-order:stroke markers fill"/><path d="m488.79 630.73c53.645 2.4794 99.743-20.972 121.85-56.786 7.2912 5.2161 15.827 7.7363 25.789 7.1639l-82.346 207.43z" fill="url(#linearGradient62)" stroke-linecap="square" stroke-width="30" style="paint-order:stroke markers fill"/><path d="m511.37 943.94 166.23-413.34" fill="url(#linearGradient60)" stroke-linecap="round" stroke-linejoin="round" stroke-width="15" style="paint-order:stroke markers fill"/></g><path d="m309.82 250.4c-47.442-48.467 28.131-155.48 101.12-108.73 11.936-95.111 186.56-108.7 187.08 7.3951 49.773-53.067 151.96 13.976 99.445 102.73 103.62 4.2496 102.4 149.26 15.84 168.01 58.848 81.851-47.352 180.94-116.84 111.95-18.068 92.537-183.88 93.833-200.85-1.3212-93.067 52.178-155.46-59.228-106.52-119.57-88.6-16.603-66.065-154.57 20.725-160.46z" fill="url(#linearGradient44)" stroke="url(#linearGradient42)" stroke-linecap="square" stroke-width="30" style="paint-order:stroke markers fill"/><g transform="translate(-1051 9.8083)"><path d="m1439.4 274.85c9.3168-8.7521 20.328-12.987 33.032-12.705" fill="#ec9220" stroke="#ec9220" stroke-linecap="round" stroke-linejoin="round" stroke-width="18" style="paint-order:stroke markers fill"/><path d="m1684.1 280.59c-9.3168-8.7521-20.328-12.987-33.032-12.705" fill="#ec9220" stroke="#ec9220" stroke-linecap="round" stroke-linejoin="round" stroke-width="18" style="paint-order:stroke markers fill"/><g><ellipse cx="1453.9" cy="347.37" rx="45.321" ry="48.811" fill="#582912" style="paint-order:stroke markers fill"/><ellipse transform="rotate(34.488)" cx="1373.2" cy="-544.67" rx="13.552" ry="14.61" fill="#fefdfe" style="paint-order:stroke markers fill"/><ellipse transform="matrix(.99425 .10705 -.09292 .99567 0 0)" cx="1501.3" cy="198.73" rx="6.7032" ry="7.9607" fill="#fefdfe" style="paint-order:stroke markers fill"/></g><path d="m1450.7 380.23c5.901 0.0391 9.9682-0.55808 13.326-1.4973" fill="none" stroke="#894d0e" stroke-linecap="round" stroke-linejoin="round" stroke-width="13" style="paint-order:stroke markers fill"/><g transform="translate(209.71 3.0111)"><g><ellipse cx="1453.9" cy="347.37" rx="45.321" ry="48.811" fill="#582912" style="paint-order:stroke markers fill"/><ellipse transform="rotate(34.488)" cx="1373.2" cy="-544.67" rx="13.552" ry="14.61" fill="#fefdfe" style="paint-order:stroke markers fill"/><ellipse transform="matrix(.99425 .10705 -.09292 .99567 0 0)" cx="1501.3" cy="198.73" rx="6.7032" ry="7.9607" fill="#fefdfe" style="paint-order:stroke markers fill"/></g><path d="m1450.7 380.23c5.901 0.0391 9.9682-0.55808 13.326-1.4973" fill="none" stroke="#894d0e" stroke-linecap="round" stroke-linejoin="round" stroke-width="13" style="paint-order:stroke markers fill"/></g><g fill="none" stroke-linecap="round" stroke-linejoin="round"><path d="m1530 380.89c8.3252 26.701 47.843 27.749 59.113 0.89835" stroke="#813918" stroke-width="15" style="paint-order:stroke markers fill"/><path d="m1417.8 411.21c6.5104 4.4073 13.817 6.9561 22.022 7.4111" stroke="#fe8f47" stroke-width="30" style="paint-order:stroke markers fill"/><path d="m1695.9 414.19c-6.5104 4.4073-13.817 6.9561-22.022 7.4111" stroke="#fe8f47" stroke-width="30" style="paint-order:stroke markers fill"/></g></g></svg>
